<?xml version="1.0" encoding="iso-8859-1"?>
<!-- Generator: Adobe Illustrator 22.0.1, SVG Export Plug-In . SVG Version: 6.00 Build 0)  -->
<svg version="1.1" xmlns="http://www.w3.org/2000/svg" xmlns:xlink="http://www.w3.org/1999/xlink" x="0px" y="0px"
	 viewBox="0 0 512 512" style="enable-background:new 0 0 512 512;" xml:space="preserve">
<g id="BULINE">
	<path id="XMLID_358_" style="fill:#487FDE;" d="M512,256c0,70.692-28.654,134.692-74.981,181.019S326.692,512,256,512
		s-134.692-28.654-181.019-74.981S0,326.692,0,256S28.654,121.308,74.981,74.981S185.308,0,256,0s134.692,28.654,181.019,74.981
		S512,185.308,512,256z"/>
</g>
<g id="Icons">
	<g id="XMLID_2578_">
		<g id="XMLID_270_">
			<path id="XMLID_1615_" style="fill:#F6F9FF;" d="M512,256c0,11.87-0.807,23.552-2.372,34.995s-3.888,22.645-6.918,33.555
				c-8.63,31.135-22.997,59.885-41.892,85.041S418.5,456.31,391.76,473.07c-6.63,4.16-13.465,8.023-20.486,11.57
				s-14.229,6.78-21.604,9.68c-0.83,0.325-1.662,0.647-2.497,0.965s-1.673,0.63-2.513,0.935c-0.785,0.295-1.575,0.585-2.367,0.869
				s-1.588,0.561-2.383,0.831c-3.055,1.065-6.137,2.073-9.246,3.02c-3.109,0.948-6.244,1.835-9.404,2.66
				c-1.715,0.455-3.438,0.89-5.166,1.306s-3.464,0.814-5.204,1.194c-8.84,1.93-17.852,3.405-27.01,4.397
				C274.723,511.49,265.42,512,256,512c-12.05,0-23.907-0.833-35.516-2.444s-22.969-4.001-34.024-7.116
				c-2.14-0.6-4.268-1.23-6.383-1.887c-2.115-0.658-4.217-1.342-6.307-2.052c-0.025-0.005-0.05-0.013-0.075-0.021
				c-0.025-0.009-0.05-0.019-0.075-0.029c-0.955-0.32-1.907-0.65-2.857-0.986c-0.95-0.336-1.898-0.679-2.843-1.024
				c-0.835-0.305-1.67-0.615-2.504-0.93c-0.834-0.315-1.666-0.635-2.496-0.96c-8.43-3.29-16.642-7.015-24.61-11.148
				s-15.69-8.672-23.14-13.592c-25.455-16.8-47.735-38.025-65.742-62.579S17.685,354.795,9.32,324.68
				c-2.945-10.605-5.228-21.487-6.796-32.599C0.955,280.97,0.1,269.63,0.01,258.11l9.415-11.445l9.415-11.445
				c1.34-1.625,3.267-2.412,5.175-2.371s3.795,0.911,5.055,2.601l5.1,6.79l5.1,6.79c1.43,1.915,3.615,2.755,5.72,2.589
				s4.13-1.339,5.24-3.449l13.06-24.81l13.06-24.81c1.055-1.99,2.928-3.16,4.919-3.42s4.101,0.39,5.631,2.04l8.795,9.51l8.795,9.51
				c1.545,1.675,3.69,2.313,5.703,2.02s3.892-1.515,4.907-3.56l10.095-20.41l10.095-20.41l0.005-0.005l0.005-0.005l9.23-18.66
				l9.23-18.66l0.805-1.625l0.805-1.625v-0.005v-0.005l3.695-7.47l3.695-7.47l0.67-1.355l0.67-1.355l1.85-3.74l1.85-3.74
				c1.155-2.325,3.37-3.545,5.621-3.623s4.539,0.988,5.839,3.232l0.215,0.375l0.215,0.375l2.855,4.915l2.855,4.915l3.995,6.875
				l3.995,6.875l0.585,1.005l0.585,1.005l0.135,0.235l0.135,0.235l0.44,0.76l0.44,0.76l3.72,6.405l3.72,6.405l4.755,8.185
				l4.755,8.185l2.37,4.08l2.37,4.08l0.08,0.13l0.08,0.13l1.04,1.795l1.04,1.795l0.1,0.18l0.1,0.18l5.92,10.195l5.92,10.195
				l2.595,4.46l2.595,4.46c0.2,0.34,0.425,0.658,0.673,0.949s0.517,0.556,0.807,0.791c0.865,0.715,1.895,1.19,2.986,1.388
				s2.244,0.118,3.354-0.277l1.555-0.555l1.555-0.555l2.165-0.775l2.165-0.775l7.26-2.595l7.26-2.595l3.65-1.305l3.65-1.305
				c1.07-0.385,2.205-0.475,3.295-0.288c1.09,0.187,2.135,0.652,3.025,1.378l1.14,0.94l1.14,0.94l3.89,3.19l3.89,3.19l4.61,3.78
				l4.61,3.78c0.005,0,0.008,0,0.01,0c0.002,0,0.005,0,0.01,0l0.515,0.42l0.515,0.42l1.99,1.625l1.99,1.625
				c0.41,0.345,0.852,0.625,1.316,0.845s0.949,0.38,1.444,0.485c0.765,0.165,1.552,0.19,2.325,0.075
				c0.772-0.115,1.53-0.37,2.235-0.765l0.72-0.405l0.72-0.405l0.585-0.33l0.585-0.33l13.815-7.785l13.815-7.785l0.1-0.06l0.1-0.06
				l0.785-0.44l0.785-0.44l1.49-0.84l1.49-0.84c0.8-0.45,1.657-0.712,2.519-0.801s1.726-0.004,2.541,0.241
				c0.77,0.23,1.497,0.6,2.14,1.1s1.2,1.13,1.63,1.88l2.925,5.085l2.925,5.085c0.005,0,0.008,0.003,0.009,0.005
				s0.001,0.005,0.001,0.005l5.25,9.105l5.25,9.105c0,0,0,0.003,0,0.006s0,0.009,0,0.014l1.93,3.345l1.93,3.345l2.035,3.53
				l2.035,3.53c1.365,2.375,3.8,3.425,6.141,3.242s4.589-1.598,5.579-4.153l18.125-47.065l18.125-47.065
				c1.05-2.725,3.495-4.12,5.963-4.16c2.468-0.04,4.958,1.275,6.098,3.97l5.465,12.925l5.465,12.925
				c0.795,1.875,2.345,3.16,4.121,3.694s3.779,0.316,5.479-0.814c0.56-0.375,1.152-0.65,1.759-0.831s1.226-0.269,1.841-0.269
				c1.205,0,2.395,0.338,3.425,0.971s1.9,1.564,2.465,2.749l14.595,30.75l14.595,30.75c0.895,1.885,2.55,3.113,4.393,3.545
				c1.842,0.433,3.872,0.07,5.517-1.225l1.275-1.005l1.275-1.005c0.095,2.03,0.168,4.07,0.216,6.116
				C511.975,251.893,512,253.945,512,256z"/>
			<path id="XMLID_535_" style="fill:#955949;" d="M502.71,324.55c-8.63,31.135-22.997,59.885-41.892,85.041
				S418.5,456.31,391.76,473.07c-6.63,4.16-13.465,8.023-20.486,11.57s-14.229,6.78-21.604,9.68
				c-0.83,0.325-1.662,0.647-2.497,0.965s-1.673,0.63-2.513,0.935c-0.785,0.295-1.575,0.585-2.367,0.869s-1.588,0.561-2.383,0.831
				c-3.055,1.065-6.137,2.073-9.246,3.02c-3.109,0.948-6.244,1.835-9.404,2.66c-1.715,0.455-3.438,0.89-5.166,1.306
				s-3.464,0.814-5.204,1.194c-8.84,1.93-17.852,3.405-27.01,4.397C274.723,511.49,265.42,512,256,512
				c-12.05,0-23.907-0.833-35.516-2.444s-22.969-4.001-34.024-7.116c-2.14-0.6-4.268-1.23-6.383-1.887
				c-2.115-0.658-4.217-1.342-6.307-2.052c-0.025-0.005-0.05-0.013-0.075-0.021c-0.025-0.009-0.05-0.019-0.075-0.029
				c-0.955-0.32-1.907-0.65-2.857-0.986c-0.95-0.336-1.898-0.679-2.843-1.024c-0.835-0.305-1.67-0.615-2.504-0.93
				c-0.834-0.315-1.666-0.635-2.496-0.96c-8.43-3.29-16.642-7.015-24.61-11.148s-15.69-8.672-23.14-13.592
				c-25.455-16.8-47.735-38.025-65.742-62.579S17.685,354.795,9.32,324.68l4.76-5.79l4.76-5.79c1.34-1.63,3.267-2.418,5.175-2.375
				s3.795,0.915,5.055,2.605l5.1,6.79l5.1,6.79c1.43,1.915,3.615,2.755,5.72,2.589s4.13-1.339,5.24-3.449l13.06-24.81l13.06-24.81
				c1.055-1.99,2.928-3.16,4.919-3.421s4.101,0.386,5.631,2.031l8.795,9.51l8.795,9.51c1.545,1.675,3.69,2.312,5.703,2.021
				c2.012-0.291,3.892-1.511,4.907-3.551l11.61-23.47l11.61-23.47l8.905-18.005l8.905-18.005l3.095-6.26l3.095-6.26
				c0.005,0,0.008,0,0.009,0s0.001,0,0.001,0l0.34-0.695l0.34-0.695l0.08-0.16l0.08-0.16l2.315-4.68l2.315-4.68
				c1.155-2.33,3.37-3.55,5.621-3.626s4.539,0.991,5.839,3.236l0.26,0.45l0.26,0.45l1.52,2.62l1.52,2.62l0.075,0.13l0.075,0.13
				l6.4,11.015l6.4,11.015l0.67,1.155l0.67,1.155l0.28,0.485l0.28,0.485l1.01,1.73l1.01,1.73l1.06,1.83l1.06,1.83l0.055,0.1
				l0.055,0.1l0.92,1.575l0.92,1.575l2.505,4.32l2.505,4.32l0.67,1.15l0.67,1.15l1.07,1.845l1.07,1.845l8.9,15.31l8.9,15.31
				l1.33,2.295l1.33,2.295l0.72,1.235l0.72,1.235l0.625,1.085l0.625,1.085l0.03,0.055l0.03,0.055l0.025,0.045l0.025,0.045l0.68,1.16
				l0.68,1.16c0.79,1.355,2.005,2.335,3.393,2.844c1.387,0.509,2.947,0.546,4.428,0.016l1.81-0.645l1.81-0.645l0.02-0.01l0.02-0.01
				l5.42-1.935l5.42-1.935l5.475-1.965l5.475-1.965c0.005,0,0.008,0,0.009,0s0.001,0,0.001,0l1.05-0.375l1.05-0.375
				c0.005,0.005,0.008,0.005,0.009,0.004s0.001-0.004,0.001-0.004l0.315-0.11l0.315-0.11l0.53-0.19l0.53-0.19
				c0.645-0.23,1.315-0.355,1.984-0.376s1.336,0.061,1.976,0.246c0.27,0.07,0.535,0.16,0.794,0.27c0.259,0.11,0.511,0.24,0.756,0.39
				c0.01,0,0.022,0.005,0.035,0.013s0.025,0.018,0.035,0.028c0.13,0.075,0.255,0.155,0.377,0.24c0.123,0.085,0.243,0.175,0.363,0.27
				l1.05,0.86l1.05,0.86l11.105,9.1l11.105,9.1c1.035,0.855,2.28,1.343,3.559,1.453s2.591-0.157,3.761-0.812l17.495-9.86
				l17.495-9.86c0.065-0.04,0.128-0.075,0.19-0.109s0.125-0.066,0.19-0.101c0.045-0.02,0.087-0.038,0.131-0.055
				s0.089-0.035,0.139-0.055c1.495-0.635,3.125-0.67,4.589-0.186c1.464,0.484,2.761,1.486,3.591,2.926l2.365,4.1l2.365,4.1
				l9.78,16.98l9.78,16.98c1.365,2.375,3.8,3.425,6.141,3.242s4.589-1.597,5.579-4.152l18.125-47.065l18.125-47.065
				c1.05-2.725,3.495-4.12,5.963-4.161c2.468-0.041,4.958,1.271,6.098,3.961l5.465,12.925l5.465,12.925
				c0.795,1.88,2.345,3.167,4.121,3.701s3.779,0.314,5.479-0.821c0.56-0.37,1.152-0.642,1.759-0.822s1.226-0.267,1.841-0.267
				c1.205,0,2.395,0.337,3.425,0.971s1.9,1.564,2.465,2.749l14.595,30.75l14.595,30.75c0.37,0.78,0.87,1.447,1.46,1.992
				S501.98,324.26,502.71,324.55z"/>
			<g id="XMLID_271_">
				<path id="XMLID_478_" style="fill:#D5AB99;" d="M391.76,473.07c-6.63,4.16-13.465,8.023-20.486,11.57s-14.229,6.78-21.604,9.68
					c-0.83,0.325-1.662,0.647-2.497,0.965s-1.673,0.63-2.513,0.935c-0.785,0.295-1.575,0.585-2.367,0.869s-1.588,0.561-2.383,0.831
					c-3.055,1.065-6.137,2.073-9.246,3.02c-3.109,0.948-6.244,1.835-9.404,2.66c-1.715,0.455-3.438,0.89-5.166,1.306
					s-3.464,0.814-5.204,1.194c-8.84,1.93-17.852,3.405-27.01,4.397C274.723,511.49,265.42,512,256,512
					c-12.05,0-23.907-0.833-35.516-2.444s-22.969-4.001-34.024-7.116c-2.14-0.6-4.268-1.23-6.383-1.887
					c-2.115-0.658-4.217-1.342-6.307-2.052c-0.025-0.005-0.05-0.013-0.075-0.021c-0.025-0.009-0.05-0.019-0.075-0.029
					c-0.955-0.32-1.907-0.65-2.857-0.986c-0.95-0.336-1.898-0.679-2.843-1.024c-0.835-0.305-1.67-0.615-2.504-0.93
					c-0.834-0.315-1.666-0.635-2.496-0.96c-8.43-3.29-16.642-7.015-24.61-11.148s-15.69-8.672-23.14-13.592l4.16-28.71l4.16-28.71
					c0.155-1.06,0.322-2.12,0.501-3.174s0.369-2.101,0.569-3.136c0.215-1.045,0.435-2.085,0.665-3.119s0.47-2.061,0.725-3.081
					c0,0,0,0,0-0.003s0-0.008,0-0.018c0.11-0.41,0.22-0.817,0.33-1.225s0.22-0.815,0.33-1.225c0.25-0.95,0.518-1.892,0.796-2.83
					s0.569-1.87,0.864-2.8c0.11-0.335,0.22-0.665,0.331-0.995s0.224-0.66,0.339-0.995c0.34-0.98,0.69-1.96,1.051-2.937
					s0.734-1.953,1.119-2.923c1.69-4.2,3.598-8.287,5.711-12.245s4.434-7.785,6.949-11.465c0.155-0.225,0.31-0.45,0.467-0.675
					c0.157-0.225,0.317-0.45,0.482-0.675c0.035-0.05,0.07-0.1,0.105-0.149s0.07-0.096,0.105-0.141c0.15-0.215,0.3-0.428,0.451-0.64
					s0.304-0.425,0.459-0.64c0.19-0.26,0.382-0.523,0.576-0.785c0.194-0.263,0.389-0.525,0.584-0.785
					c0.12-0.155,0.237-0.31,0.355-0.465c0.118-0.155,0.235-0.31,0.355-0.465c0.16-0.21,0.322-0.418,0.485-0.624
					s0.325-0.411,0.485-0.616c0.15-0.19,0.3-0.38,0.451-0.57s0.304-0.38,0.459-0.57c0.25-0.315,0.505-0.63,0.762-0.944
					s0.517-0.626,0.777-0.936c0.215-0.255,0.435-0.515,0.658-0.775s0.448-0.52,0.673-0.775c3.13-3.59,6.47-6.992,10.002-10.185
					s7.258-6.175,11.158-8.925c0.025-0.025,0.05-0.047,0.075-0.066c0.025-0.019,0.05-0.034,0.075-0.044
					c1.575-1.115,3.177-2.188,4.807-3.219c1.63-1.031,3.288-2.021,4.973-2.971v-0.005v-0.005c0.07-0.045,0.143-0.088,0.216-0.13
					c0.074-0.043,0.149-0.085,0.224-0.13c0.42-0.235,0.843-0.468,1.268-0.698c0.425-0.23,0.852-0.457,1.282-0.682
					c2.57-1.355,5.198-2.62,7.88-3.789c2.683-1.169,5.42-2.241,8.21-3.211c0.04-0.015,0.08-0.03,0.12-0.045s0.08-0.03,0.12-0.045
					l2.505-0.865l2.505-0.865l0.005-0.005l0.005-0.005l1.245-0.43l1.245-0.43l0.955-0.33l0.955-0.33l3.345-1.155l3.345-1.155
					l4.065-1.41l4.065-1.41c0.005,0,0.01,0,0.015-0.001s0.01-0.004,0.015-0.009c0.25-0.09,0.495-0.202,0.726-0.334
					s0.449-0.281,0.644-0.446c0.48-0.4,0.865-0.895,1.13-1.45s0.41-1.17,0.41-1.81v-20.495V261.41h26.16h26.16v20.835v20.835
					c0,0.48,0.078,0.945,0.228,1.38c0.15,0.435,0.372,0.84,0.663,1.2c0.205,0.275,0.445,0.528,0.716,0.749
					c0.271,0.221,0.574,0.411,0.904,0.561l6.26,2.84l6.26,2.84l1.825,0.615l1.825,0.615l1.32,0.445l1.32,0.445
					c0.235,0.075,0.47,0.152,0.705,0.234s0.47,0.166,0.705,0.256c0.98,0.34,1.953,0.695,2.918,1.062s1.923,0.747,2.873,1.138
					c0.005,0,0.008,0,0.009,0s0.001,0,0.001,0c0.13,0.055,0.257,0.108,0.385,0.16s0.255,0.105,0.385,0.16
					c0.65,0.27,1.297,0.55,1.943,0.836s1.288,0.579,1.927,0.874c0.32,0.15,0.64,0.3,0.959,0.452s0.636,0.307,0.951,0.467
					c0.535,0.255,1.068,0.515,1.596,0.78s1.054,0.535,1.574,0.81c0.11,0.06,0.218,0.118,0.324,0.174s0.211,0.111,0.316,0.166
					c0.09,0.05,0.18,0.1,0.271,0.149s0.184,0.096,0.279,0.141c0.825,0.445,1.643,0.903,2.455,1.369s1.62,0.941,2.425,1.421
					c1.92,1.155,3.802,2.363,5.645,3.621s3.645,2.569,5.405,3.929c0.365,0.285,0.73,0.57,1.092,0.856s0.723,0.574,1.077,0.864
					c0.075,0.055,0.15,0.113,0.224,0.171s0.146,0.119,0.216,0.179c4.015,3.265,7.812,6.795,11.37,10.559
					c3.557,3.764,6.875,7.761,9.93,11.961c0.02,0.025,0.037,0.05,0.055,0.075c0.017,0.025,0.035,0.05,0.055,0.075
					c0.63,0.87,1.253,1.75,1.862,2.639s1.207,1.786,1.787,2.691c0.19,0.29,0.378,0.58,0.562,0.871s0.368,0.584,0.548,0.879
					c0.105,0.165,0.21,0.333,0.314,0.5c0.104,0.167,0.206,0.335,0.306,0.5c0.16,0.26,0.318,0.52,0.474,0.781
					s0.311,0.524,0.466,0.789c0.21,0.36,0.42,0.72,0.629,1.08s0.416,0.72,0.621,1.08c0.21,0.38,0.42,0.76,0.629,1.14
					s0.416,0.76,0.621,1.14c3.495,6.525,6.42,13.408,8.717,20.57s3.967,14.605,4.952,22.25l3.755,29.225L391.76,473.07z"/>
				<path id="XMLID_1578_" style="fill:#C19C8C;" d="M282.37,270.952h-26.161h-26.161v12.52v12.52
					c8.72,2.302,17.441,3.454,26.161,3.454s17.441-1.151,26.161-3.454v-12.52V270.952z"/>
				<path id="XMLID_1577_" style="fill:#EFCA66;" d="M153.763,118.299v35.4v35.4c0,24.606,9.973,46.882,26.098,63.007
					s38.401,26.098,63.007,26.098h10.361h10.361c24.606,0,46.882-9.973,63.007-26.098s26.098-38.401,26.098-63.007v-35.4v-35.4
					h-99.467H153.763z"/>
				<path id="XMLID_1576_" style="fill:#D4B15D;" d="M273.63,277.645c-1.647,0.187-3.308,0.326-4.981,0.42s-3.36,0.14-5.059,0.14
					h-10.361h-10.361c-24.602,0-46.879-9.973-63.005-26.097s-26.101-38.401-26.101-63.008v-35.399v-35.399h20.401h20.401v35.399
					v35.399c0,22.908,8.644,43.799,22.849,59.585S251.385,275.154,273.63,277.645z"/>
				<path id="XMLID_1575_" style="fill:#E9C0AA;" d="M310.55,134.531h17.056h17.056v-2.207v-2.207
					c0-23.259-8.884-44.316-23.246-59.558c-14.363-15.242-34.205-24.67-56.121-24.67h-11.503h-11.503
					c-21.917,0-41.759,9.427-56.121,24.67c-14.363,15.242-23.246,36.299-23.246,59.558v2.207v2.207h17.525h17.525l-17.525,11.8
					l-17.525,11.8v16.897v16.897c0,23.055,9.173,38.275,21.691,50.662c12.517,12.387,28.379,21.94,41.755,33.664
					c7.964,6.98,17.694,10.469,27.424,10.469s19.46-3.49,27.424-10.469c13.376-11.723,29.238-21.277,41.755-33.664
					c12.517-12.387,21.691-27.606,21.691-50.662v-16.73v-16.73l-17.056-11.968L310.55,134.531z"/>
				<path id="XMLID_1574_" style="fill:#D5AB99;" d="M280.395,277.065c-7.942,6.569-17.508,9.786-27.039,9.65
					c-9.531-0.136-19.027-3.625-26.829-10.469c-13.376-11.718-29.236-21.271-41.753-33.658
					c-12.516-12.387-21.688-27.607-21.688-50.661v-16.899V158.13l14.252-9.6l14.252-9.6c-0.684,3.735-1.207,7.535-1.559,11.391
					s-0.534,7.767-0.534,11.725c0,29.317,9.882,56.098,26.185,76.536S254.709,273.118,280.395,277.065z"/>
				<path id="XMLID_1573_" style="fill:#D5AB99;" d="M145.081,178.897c0,5.022,2.035,9.568,5.326,12.859s7.837,5.326,12.859,5.326
					s9.568-2.035,12.859-5.326s5.326-7.837,5.326-12.859s-2.035-9.568-5.326-12.859c-3.291-3.291-7.837-5.326-12.859-5.326
					s-9.568,2.035-12.859,5.326C147.116,169.329,145.081,173.875,145.081,178.897z"/>
				<path id="XMLID_1572_" style="fill:#E9C0AA;" d="M326.821,178.897c0,5.022,2.035,9.568,5.326,12.859
					c3.291,3.291,7.837,5.326,12.859,5.326c5.022,0,9.568-2.035,12.859-5.326c3.291-3.291,5.326-7.837,5.326-12.859
					s-2.035-9.568-5.326-12.859c-3.291-3.291-7.837-5.326-12.859-5.326c-5.022,0-9.568,2.035-12.859,5.326
					C328.856,169.329,326.821,173.875,326.821,178.897z"/>
				<path style="fill:#E39123;" d="M187.71,157.42c-1.229,0-2.42-0.647-3.061-1.797c-0.94-1.689-0.334-3.82,1.354-4.761
					c0.254-0.141,6.318-3.484,14.972-5.167c11.643-2.264,22.48-0.437,31.348,5.284c1.624,1.048,2.091,3.214,1.043,4.838
					c-1.048,1.624-3.214,2.091-4.838,1.043c-7.424-4.79-16.243-6.235-26.216-4.294c-7.57,1.473-12.849,4.382-12.901,4.411
					C188.871,157.278,188.287,157.42,187.71,157.42z"/>
				<path id="XMLID_1570_" style="fill:#487FDE;" d="M216.359,176.704c0,3.02-0.85,5.754-2.225,7.733
					c-1.375,1.979-3.275,3.203-5.373,3.203c-2.098,0-3.998-1.224-5.373-3.203c-1.375-1.979-2.225-4.713-2.225-7.733
					c0-3.02,0.85-5.754,2.225-7.733c1.375-1.979,3.275-3.203,5.373-3.203c2.098,0,3.998,1.224,5.373,3.203
					C215.509,170.95,216.359,173.684,216.359,176.704z"/>
				<path style="fill:#E39123;" d="M276.029,157.42c-1.229,0-2.42-0.647-3.061-1.797c-0.94-1.689-0.334-3.82,1.354-4.761
					c0.254-0.141,6.318-3.484,14.972-5.167c11.642-2.264,22.48-0.437,31.348,5.284c1.624,1.048,2.091,3.214,1.043,4.838
					c-1.047,1.624-3.215,2.091-4.838,1.043c-7.424-4.79-16.243-6.235-26.216-4.294c-7.57,1.473-12.849,4.382-12.901,4.411
					C277.19,157.278,276.605,157.42,276.029,157.42z"/>
				<path id="XMLID_1567_" style="fill:#487FDE;" d="M304.678,176.704c0,3.02-0.85,5.754-2.225,7.733
					c-1.375,1.979-3.275,3.203-5.373,3.203c-2.098,0-3.998-1.224-5.373-3.203c-1.375-1.979-2.225-4.713-2.225-7.733
					c0-3.02,0.85-5.754,2.225-7.733s3.275-3.203,5.373-3.203c2.098,0,3.998,1.224,5.373,3.203S304.678,173.684,304.678,176.704z"/>
				<path id="XMLID_1566_" style="fill:#D57249;" d="M262.063,207.098h-8.619h-8.619c-1.268,0-2.416-0.514-3.247-1.345
					s-1.345-1.979-1.345-3.247v-0.416v-0.416c0-1.268,0.514-2.416,1.345-3.247s1.979-1.345,3.247-1.345h8.619h8.619
					c1.268,0,2.416,0.514,3.247,1.345s1.345,1.979,1.345,3.247v0.416v0.416c0,1.268-0.514,2.416-1.345,3.247
					S263.331,207.098,262.063,207.098z"/>
				<path style="fill:#C17920;" d="M222.573,172.146c-0.588,0-1.185-0.148-1.733-0.461c-5.257-3.003-10.916-3.918-16.82-2.717
					c-4.333,0.881-7.189,2.628-7.217,2.646c-1.638,1.015-3.796,0.518-4.817-1.116c-1.021-1.634-0.537-3.782,1.092-4.811
					c0.156-0.099,3.889-2.428,9.547-3.578c7.51-1.528,15.008-0.318,21.688,3.499c1.678,0.959,2.262,3.097,1.303,4.775
					C224.969,171.513,223.788,172.146,222.573,172.146z"/>
				<path style="fill:#C17920;" d="M310.892,172.146c-0.588,0-1.185-0.148-1.733-0.461c-5.256-3.003-10.916-3.918-16.82-2.717
					c-4.333,0.881-7.188,2.628-7.217,2.646c-1.639,1.015-3.794,0.518-4.817-1.116c-1.021-1.634-0.537-3.782,1.092-4.811
					c0.156-0.099,3.889-2.428,9.547-3.579c7.51-1.528,15.009-0.318,21.688,3.499c1.678,0.959,2.262,3.097,1.303,4.775
					C313.288,171.513,312.107,172.146,310.892,172.146z"/>
				<path id="XMLID_1563_" style="fill:#C79A5B;" d="M344.132,134.531h-90.688h-90.688c-4.775,0-9.275-1.544-12.945-4.225
					c-3.67-2.681-6.509-6.499-7.961-11.048l-1.303-4.083l-1.303-4.083c-0.713-2.233-0.236-4.489,1.005-6.187
					s3.245-2.838,5.589-2.838h107.606H361.05c2.343,0,4.348,1.14,5.589,2.838s1.717,3.955,1.005,6.187l-1.303,4.083l-1.303,4.083
					c-1.452,4.549-4.291,8.367-7.961,11.048C353.407,132.987,348.907,134.531,344.132,134.531z"/>
				<path id="XMLID_1562_" style="fill:#AE8350;" d="M335.211,62.44c-2.079-9.793-7.441-18.191-14.786-24.141
					s-16.674-9.452-26.685-9.452h-12.928h-12.928c-2.005,0-3.914,0.409-5.65,1.147s-3.296,1.807-4.605,3.126
					c-1.167,1.177-2.676,1.765-4.186,1.765c-1.509,0-3.019-0.588-4.186-1.765c-1.308-1.319-2.869-2.388-4.605-3.126
					c-1.735-0.738-3.645-1.147-5.65-1.147h-12.928h-12.928c-10.011,0-19.339,3.502-26.685,9.452s-12.708,14.348-14.786,24.141
					l-4.206,19.813l-4.206,19.813h45.089h45.089h45.089h45.089l-4.206-19.813L335.211,62.44z"/>
				<path id="XMLID_1560_" style="fill:#E9B12D;" d="M348.94,63.081c-2.038,9.853-4.545,15.948-7.278,19.426
					s-5.694,4.341-8.641,3.732c-2.947-0.61-5.323-2.576-6.452-6.854c-1.129-4.278-1.012-10.866,1.026-20.72
					c1.472-7.117,4.514-14.805,7.799-21.723c3.286-6.918,6.815-13.067,9.263-17.105c0.603-0.995,1.53-1.363,2.345-1.194
					c0.816,0.169,1.52,0.874,1.679,2.027c0.645,4.678,1.445,11.722,1.717,19.376S350.412,55.965,348.94,63.081z"/>
				<path id="XMLID_1559_" style="fill:#FFFFFF;" d="M331.082,59.903c2.268,11.507,2.333,19.188,0.97,24.161
					c-1.363,4.973-4.153,7.24-7.595,7.918c-3.442,0.678-6.883-0.36-10.031-4.444s-6.003-11.215-8.271-22.722
					c-1.638-8.311-1.849-17.946-1.449-26.864s1.41-17.12,2.212-22.566c0.198-1.342,1.027-2.156,1.979-2.344
					c0.953-0.188,2.029,0.252,2.721,1.418c2.809,4.734,6.856,11.939,10.61,20.038S329.444,51.591,331.082,59.903z"/>
				<path id="XMLID_1558_" style="fill:#D74545;" d="M339.356,78.754h-85.22h-85.22c-2.062,0-3.928,0.836-5.279,2.187
					c-1.351,1.351-2.187,3.218-2.187,5.279v7.923v7.923h92.686h92.686v-7.923V86.22c0-2.062-0.836-3.928-2.187-5.279
					C343.284,79.589,341.418,78.754,339.356,78.754z"/>
				<path id="XMLID_1557_" style="fill:#B38752;" d="M203.516,134.528h-20.38h-20.38c-4.771,0-9.271-1.544-12.94-4.225
					c-3.669-2.681-6.508-6.499-7.959-11.048l-1.305-4.082l-1.305-4.082c-0.715-2.233-0.238-4.489,1.002-6.187
					s3.246-2.838,5.587-2.838h20.38h20.38c-2.347,0-4.352,1.14-5.592,2.838s-1.717,3.954-1.008,6.187l1.306,4.082l1.306,4.082
					c1.451,4.549,4.289,8.367,7.96,11.048C194.237,132.984,198.739,134.528,203.516,134.528z"/>
				<path id="XMLID_343_" style="fill:#9B7448;" d="M244.452,29.912c-7.906,1.803-15.039,5.831-20.632,11.459
					s-9.644,12.858-11.384,21.064l-1.73,8.159l-1.73,8.159L206.5,90.41l-2.476,11.656h-20.38h-20.38l2.471-11.636l2.471-11.636
					l1.736-8.18l1.735-8.18c2.083-9.791,7.444-18.189,14.789-24.139c7.345-5.95,16.672-9.452,26.686-9.452h12.925h12.925
					c0.969,0,1.912,0.093,2.822,0.273C242.735,29.298,243.613,29.564,244.452,29.912z"/>
				<path id="XMLID_342_" style="fill:#AA3C3C;" d="M208.976,78.754L206.5,90.41l-2.476,11.656h-21.287H161.45v-7.921v-7.921
					c0-1.943,0.741-3.712,1.956-5.039c1.215-1.328,2.904-2.213,4.8-2.39c0.119-0.016,0.238-0.026,0.357-0.032
					c0.119-0.006,0.238-0.009,0.357-0.009h20.028H208.976z"/>
				<path style="fill:#BA8980;" d="M270.843,233.353h-35.228c-1.933,0-3.5-1.567-3.5-3.5s1.567-3.5,3.5-3.5h35.228
					c1.933,0,3.5,1.567,3.5,3.5S272.776,233.353,270.843,233.353z"/>
				<path style="fill:#BA8980;" d="M264.626,246.132h-22.794c-1.933,0-3.5-1.567-3.5-3.5s1.567-3.5,3.5-3.5h22.794
					c1.933,0,3.5,1.567,3.5,3.5S266.56,246.132,264.626,246.132z"/>
				<g id="XMLID_337_">
					<path id="XMLID_339_" style="fill:#E39123;" d="M188.517,236.415L188.517,236.415L188.517,236.415l18.648,0h18.648
						c7.666,0,14.607-3.107,19.631-8.132c5.024-5.024,8.132-11.965,8.132-19.631h-18.648H216.28c-7.666,0-14.607,3.107-19.631,8.132
						C191.624,221.808,188.517,228.749,188.517,236.415z"/>
					<path id="XMLID_338_" style="fill:#E39123;" d="M290.87,208.652h-18.648h-18.648c0,7.666,3.107,14.607,8.132,19.631
						c5.024,5.024,11.965,8.132,19.631,8.132h18.648h18.648v0v0c0-7.666-3.107-14.607-8.132-19.631S298.537,208.652,290.87,208.652z
						"/>
				</g>
				<g id="XMLID_332_">
					<path id="XMLID_336_" style="fill:#C87D21;" d="M253.578,208.65c0,7.667-3.108,14.609-8.133,19.634s-11.967,8.133-19.634,8.133
						h-18.645h-18.645c0-1.508,0.119-2.989,0.351-4.433c0.232-1.444,0.576-2.851,1.027-4.208h17.956h17.956
						c6.16,0,11.851-2.005,16.456-5.398c4.606-3.393,8.126-8.175,9.944-13.728h0.684H253.578z"/>
					<path id="XMLID_335_" style="fill:#C87D21;" d="M318.636,236.418h-18.65h-18.65c-7.667,0-14.607-3.108-19.629-8.133
						c-5.023-5.025-8.128-11.967-8.128-19.634h0.684h0.684c1.813,5.554,5.331,10.335,9.935,13.728s10.295,5.398,16.455,5.398h17.961
						h17.961c0.451,1.357,0.795,2.764,1.027,4.208C318.517,233.428,318.636,234.91,318.636,236.418z"/>
				</g>
				<path id="XMLID_394_" style="fill:#FFFFFF;" d="M349.67,494.32c-0.83,0.325-1.662,0.647-2.497,0.965s-1.673,0.63-2.513,0.935
					c-0.785,0.295-1.575,0.585-2.367,0.869s-1.588,0.561-2.383,0.831c-3.055,1.065-6.137,2.073-9.246,3.02
					c-3.109,0.948-6.244,1.835-9.404,2.66c-1.715,0.455-3.438,0.89-5.166,1.306s-3.464,0.814-5.204,1.194
					c-8.84,1.93-17.852,3.405-27.01,4.397C274.723,511.49,265.42,512,256,512c-12.05,0-23.907-0.833-35.516-2.444
					s-22.969-4.001-34.024-7.116c-2.14-0.6-4.268-1.23-6.383-1.887c-2.115-0.658-4.217-1.342-6.307-2.052
					c-0.025-0.005-0.05-0.013-0.075-0.021c-0.025-0.009-0.05-0.019-0.075-0.029c-0.955-0.32-1.907-0.65-2.857-0.986
					c-0.95-0.336-1.898-0.679-2.843-1.024c-0.835-0.305-1.67-0.615-2.504-0.93c-0.834-0.315-1.666-0.635-2.496-0.96
					c-8.43-3.29-16.642-7.015-24.61-11.148s-15.69-8.672-23.14-13.592l4.16-28.71l4.16-28.71c0.155-1.06,0.322-2.12,0.501-3.174
					s0.369-2.101,0.569-3.136c0.215-1.045,0.435-2.085,0.665-3.119s0.47-2.061,0.725-3.081c0,0,0,0,0-0.003s0-0.008,0-0.018
					c0.11-0.41,0.22-0.817,0.33-1.225s0.22-0.815,0.33-1.225c0.25-0.95,0.518-1.892,0.796-2.83s0.569-1.87,0.864-2.8
					c0.11-0.335,0.22-0.665,0.331-0.995s0.224-0.66,0.339-0.995c0.34-0.98,0.69-1.96,1.051-2.937s0.734-1.953,1.119-2.923
					c1.69-4.2,3.598-8.287,5.711-12.245s4.434-7.785,6.949-11.465c0.155-0.225,0.31-0.45,0.467-0.675
					c0.157-0.225,0.317-0.45,0.482-0.675c0.035-0.05,0.07-0.1,0.105-0.149s0.07-0.096,0.105-0.141c0.15-0.215,0.3-0.428,0.451-0.64
					s0.304-0.425,0.459-0.64c0.19-0.26,0.382-0.523,0.576-0.785c0.194-0.263,0.389-0.525,0.584-0.785
					c0.12-0.155,0.237-0.31,0.355-0.465c0.118-0.155,0.235-0.31,0.355-0.465c0.16-0.21,0.322-0.418,0.485-0.624
					s0.325-0.411,0.485-0.616c0.15-0.19,0.3-0.38,0.451-0.57s0.304-0.38,0.459-0.57c0.25-0.315,0.505-0.63,0.762-0.944
					s0.517-0.626,0.777-0.936c0.215-0.255,0.435-0.515,0.658-0.775s0.448-0.52,0.673-0.775c3.13-3.59,6.47-6.992,10.002-10.185
					s7.258-6.175,11.158-8.925c0.025-0.025,0.05-0.047,0.075-0.066c0.025-0.019,0.05-0.034,0.075-0.044
					c1.575-1.115,3.177-2.188,4.807-3.219c1.63-1.031,3.288-2.021,4.973-2.971v-0.005v-0.005c0.07-0.045,0.143-0.088,0.216-0.13
					c0.074-0.043,0.149-0.085,0.224-0.13c0.42-0.235,0.843-0.468,1.268-0.698c0.425-0.23,0.852-0.457,1.282-0.682
					c2.57-1.355,5.198-2.62,7.88-3.789c2.683-1.169,5.42-2.241,8.21-3.211c0.04-0.015,0.08-0.03,0.12-0.045s0.08-0.03,0.12-0.045
					l2.505-0.865l2.505-0.865l0.005-0.005l0.005-0.005l1.245-0.43l1.245-0.43l0.955-0.33l0.955-0.33l3.345-1.155l3.345-1.155
					l4.065-1.41l4.065-1.41c0.005,0,0.01,0,0.015-0.001s0.01-0.004,0.015-0.009c0.25-0.09,0.495-0.202,0.726-0.334
					s0.449-0.281,0.644-0.446h3.485h3.485l10.365,9.755l10.365,9.755l10.36-9.755l10.36-9.755h3.165h3.165
					c0.205,0.275,0.445,0.528,0.716,0.749c0.271,0.221,0.574,0.411,0.904,0.561l6.26,2.84l6.26,2.84l1.825,0.615l1.825,0.615
					l1.32,0.445l1.32,0.445c0.235,0.075,0.47,0.152,0.705,0.234s0.47,0.166,0.705,0.256c0.98,0.34,1.953,0.695,2.918,1.062
					s1.923,0.747,2.873,1.138c0.005,0,0.008,0,0.009,0s0.001,0,0.001,0c0.13,0.055,0.257,0.108,0.385,0.16s0.255,0.105,0.385,0.16
					c0.65,0.27,1.297,0.55,1.943,0.836s1.288,0.579,1.927,0.874c0.32,0.15,0.64,0.3,0.959,0.452s0.636,0.307,0.951,0.467
					c0.535,0.255,1.068,0.515,1.596,0.78s1.054,0.535,1.574,0.81c0.11,0.06,0.218,0.118,0.324,0.174s0.211,0.111,0.316,0.166
					c0.09,0.05,0.18,0.1,0.271,0.149s0.184,0.096,0.279,0.141c0.825,0.445,1.643,0.903,2.455,1.369s1.62,0.941,2.425,1.421
					c1.92,1.155,3.802,2.363,5.645,3.621s3.645,2.569,5.405,3.929c0.365,0.285,0.73,0.57,1.092,0.856s0.723,0.574,1.077,0.864
					c0.075,0.055,0.15,0.113,0.224,0.171s0.146,0.119,0.216,0.179c4.015,3.265,7.812,6.795,11.37,10.559
					c3.557,3.764,6.875,7.761,9.93,11.961c0.02,0.025,0.037,0.05,0.055,0.075c0.017,0.025,0.035,0.05,0.055,0.075
					c0.63,0.87,1.253,1.75,1.862,2.639s1.207,1.786,1.787,2.691c0.19,0.29,0.378,0.58,0.562,0.871s0.368,0.584,0.548,0.879
					c0.105,0.165,0.21,0.333,0.314,0.5c0.104,0.167,0.206,0.335,0.306,0.5c0.16,0.26,0.318,0.52,0.474,0.781
					s0.311,0.524,0.466,0.789c0.21,0.36,0.42,0.72,0.629,1.08s0.416,0.72,0.621,1.08c0.21,0.38,0.42,0.76,0.629,1.14
					s0.416,0.76,0.621,1.14c3.495,6.525,6.42,13.408,8.717,20.57s3.967,14.605,4.952,22.25l3.755,29.225l3.755,29.225
					c-6.63,4.16-13.465,8.023-20.486,11.57S357.045,491.42,349.67,494.32z"/>
				<g id="XMLID_283_">
					<path id="XMLID_330_" style="fill:#CFCFCF;" d="M256.21,325.172l-8.46,11.915l-8.46,11.915c-0.865,1.223-2.217,1.8-3.546,1.751
						c-1.329-0.049-2.634-0.725-3.406-2.01l-10.978-18.251l-10.978-18.251l-0.114-0.192l-0.114-0.192
						c-0.632-1.052-0.852-2.254-0.69-3.401s0.706-2.241,1.602-3.075l4.279-3.984l4.279-3.984c1-0.938,2.277-1.404,3.553-1.401
						c1.276,0.003,2.55,0.474,3.545,1.412l4.378,4.119l4.378,4.119l10.366,9.755L256.21,325.172z"/>
					<path id="XMLID_329_" style="fill:#CFCFCF;" d="M302.265,311.858l-0.606,1.01l-0.606,1.01l-10.485,17.433l-10.485,17.433
						c-0.777,1.285-2.083,1.961-3.411,2.01s-2.681-0.528-3.551-1.751l-8.455-11.915l-8.455-11.915l10.361-9.755l10.361-9.755
						l4.378-4.119l4.378-4.119c1-0.938,2.277-1.409,3.554-1.412s2.554,0.464,3.554,1.401l4.279,3.984l4.279,3.984
						c0.896,0.834,1.44,1.927,1.602,3.075C303.117,309.604,302.897,310.806,302.265,311.858z"/>
				</g>
				<path id="XMLID_279_" style="fill:#6F4232;" d="M337,318.51l-7.54-2.965l-7.54-2.965l-2.39-0.935l-2.39-0.935
					c-0.885-0.35-1.793-0.402-2.633-0.219s-1.612,0.604-2.227,1.199c-0.21,0.205-0.403,0.43-0.573,0.673
					c-0.17,0.242-0.318,0.503-0.438,0.778c-0.03,0.07-0.06,0.142-0.087,0.215s-0.053,0.145-0.073,0.215
					c-0.065,0.22-0.117,0.447-0.154,0.681c-0.036,0.234-0.056,0.474-0.056,0.719v31.065V377.1c0,0-0.003,0-0.005-0.001
					s-0.005-0.004-0.005-0.009c-5.295-3.53-13-6.492-22.284-8.572s-20.146-3.277-31.756-3.277c-11.675,0-22.592,1.208-31.91,3.308
					c-9.318,2.1-17.035,5.092-22.31,8.662v-31.14v-31.14c0-0.27-0.025-0.535-0.071-0.791s-0.114-0.504-0.199-0.739
					c-0.325-0.9-0.923-1.652-1.677-2.18c-0.755-0.527-1.668-0.83-2.622-0.83c-0.045,0-0.09,0.002-0.136,0.005
					c-0.046,0.002-0.094,0.005-0.144,0.005c-0.23,0.015-0.463,0.048-0.696,0.099c-0.234,0.051-0.469,0.121-0.704,0.211l-9.925,3.9
					l-9.925,3.9c-0.88,0.345-1.608,0.94-2.115,1.684s-0.795,1.636-0.795,2.576v87.84v87.84c0.025,0.01,0.05,0.02,0.075,0.029
					c0.025,0.009,0.05,0.016,0.075,0.021c2.09,0.71,4.192,1.395,6.307,2.052c2.115,0.658,4.242,1.288,6.383,1.887
					c11.055,3.115,22.415,5.505,34.024,7.116S243.95,512,256,512c9.42,0,18.723-0.51,27.88-1.503
					c9.158-0.992,18.17-2.467,27.01-4.397c1.74-0.38,3.475-0.778,5.204-1.194s3.451-0.851,5.166-1.306
					c3.16-0.825,6.295-1.713,9.404-2.66c3.109-0.948,6.191-1.955,9.246-3.02v-87.575V322.77c0-0.94-0.29-1.832-0.799-2.576
					S337.875,318.855,337,318.51z M310.9,461.25h-54.135H202.63v-8.29v-8.29h54.135H310.9v8.29V461.25z M310.9,427.4h-54.135H202.63
					v-13.925V399.55c5.275,3.565,12.992,6.557,22.31,8.659c9.317,2.101,20.235,3.311,31.91,3.311c11.61,0,22.473-1.198,31.756-3.279
					s16.989-5.046,22.284-8.581c0-0.005,0.003-0.008,0.005-0.009s0.005-0.001,0.005-0.001v13.875V427.4z"/>
				<path id="XMLID_344_" style="fill:#CFCFCF;" d="M167.92,390.8v52.82v52.82c-0.835-0.305-1.67-0.615-2.504-0.93
					c-0.834-0.315-1.666-0.635-2.496-0.96V444.4v-50.15l-8.995-17.835l-8.995-17.835c0.15-0.215,0.3-0.428,0.451-0.64
					s0.304-0.425,0.459-0.64c0.19-0.26,0.382-0.523,0.576-0.785c0.194-0.263,0.389-0.525,0.584-0.785
					c0.12-0.155,0.237-0.31,0.355-0.465c0.118-0.155,0.235-0.31,0.355-0.465c0.16-0.21,0.322-0.418,0.485-0.624
					s0.325-0.411,0.485-0.616l9.62,18.62L167.92,390.8z"/>
				<path id="XMLID_309_" style="fill:#CFCFCF;" d="M365.41,363.04l-7.87,15.605l-7.87,15.605v50.035v50.035
					c-0.83,0.325-1.662,0.647-2.497,0.965s-1.673,0.63-2.513,0.935v-52.71V390.8l8.55-16.545l8.55-16.545
					c0.63,0.87,1.253,1.75,1.862,2.639S364.83,362.135,365.41,363.04z"/>
				<path id="XMLID_328_" style="fill:#603A2E;" d="M202.48,313.35l-0.06,0.025l-0.06,0.025l-6.495,2.555l-6.495,2.555
					c-0.745,0.29-1.382,0.76-1.869,1.35s-0.821,1.3-0.961,2.07c-0.025,0.135-0.045,0.273-0.059,0.413
					c-0.014,0.14-0.021,0.283-0.021,0.428v89.835v89.835c-2.14-0.6-4.268-1.23-6.383-1.887c-2.115-0.658-4.217-1.342-6.307-2.052
					v-87.865V322.77c0-0.945,0.287-1.84,0.794-2.584s1.231-1.336,2.106-1.676l9.935-3.9l9.935-3.9
					c0.205-0.08,0.413-0.145,0.62-0.196s0.415-0.089,0.62-0.114c0.05,0,0.097-0.002,0.144-0.005
					c0.046-0.002,0.091-0.005,0.136-0.005c0.975-0.035,1.91,0.25,2.686,0.771S202.14,312.44,202.48,313.35z"/>
				<path id="XMLID_349_" style="fill:#603A2E;" d="M321.92,312.58c-0.21,0.345-0.375,0.72-0.487,1.12s-0.172,0.825-0.172,1.27
					v94.315V503.6c-1.715,0.455-3.438,0.89-5.166,1.306s-3.464,0.814-5.204,1.194v-95.565V314.97c0-0.245,0.02-0.485,0.057-0.719
					c0.037-0.234,0.092-0.461,0.162-0.681c0.02-0.07,0.045-0.143,0.073-0.215s0.057-0.145,0.087-0.215
					c0.12-0.275,0.267-0.538,0.438-0.781c0.17-0.244,0.362-0.469,0.573-0.669c0.615-0.595,1.387-1.015,2.227-1.199
					s1.747-0.131,2.633,0.219l2.39,0.935L321.92,312.58z"/>
				<path id="XMLID_272_" style="fill:#603A2E;" d="M300.764,388.378c0,4.599-4.987,8.763-13.05,11.778
					c-8.063,3.014-19.201,4.878-31.505,4.878c-12.303,0-23.442-1.864-31.505-4.878s-13.05-7.178-13.05-11.778
					s4.987-8.763,13.05-11.778c8.063-3.014,19.201-4.878,31.505-4.878c12.303,0,23.442,1.864,31.505,4.878
					C295.777,379.614,300.764,383.778,300.764,388.378z"/>
			</g>
		</g>
		<path id="XMLID_2562_" style="fill:#D57249;" d="M163.266,170.674c-2.271,0-4.326,0.92-5.815,2.408
			c-1.488,1.488-2.408,3.544-2.408,5.815s0.92,4.326,2.408,5.814c1.488,1.488,3.544,2.408,5.815,2.408v-8.223V170.674z"/>
		<path id="XMLID_2579_" style="fill:#D57249;" d="M344.527,187.12c2.271,0,4.326-0.92,5.815-2.408
			c1.488-1.488,2.408-3.544,2.408-5.814s-0.92-4.326-2.408-5.815c-1.488-1.488-3.544-2.408-5.815-2.408v8.223V187.12z"/>
	</g>
</g>
</svg>
